<svg id="Layer_1" data-name="Layer 1" xmlns="http://www.w3.org/2000/svg" viewBox="0 0 81 28.86"><defs><style>.cls-1{fill: #3e86fb;}</style></defs><title>Tjommi_Logo</title><path style="fill: #3E86FB" d="M8.61,4.65V20.12A1.57,1.57,0,0,1,7,21.69H6.73a1.57,1.57,0,0,1-1.57-1.57V4.65A1.54,1.54,0,0,0,3.61,3.1H1.55A1.55,1.55,0,0,1,0,1.55H0A1.54,1.54,0,0,1,1.55,0H12.22a1.54,1.54,0,0,1,1.55,1.55h0A1.55,1.55,0,0,1,12.22,3.1H10.16A1.54,1.54,0,0,0,8.61,4.65Z" transform="translate(0)"/><path style="fill: #3E86FB" d="M17,0a2,2,0,0,1,2.06,2.06,2.06,2.06,0,1,1-4.12,0A2,2,0,0,1,17,0Z" transform="translate(0)"/><rect style="fill: #3E86FB" x="15.49" y="7.91" width="3.1" height="20.95" rx="1.55" ry="1.55"/><path style="fill: #3E86FB" d="M27.5,7.6a7.11,7.11,0,0,0-7.36,7.27,7.15,7.15,0,0,0,7.36,7.29,7.15,7.15,0,0,0,7.36-7.29A7.11,7.11,0,0,0,27.5,7.6Zm0,11.68c-2.52,0-4.09-1.73-4.09-4.38,0-3.14,2.06-4.42,4.09-4.42s4.09,1.28,4.09,4.42C31.59,17.55,30,19.28,27.5,19.28Z" transform="translate(0)"/><path style="fill: #3E86FB" d="M38,7.79h0a1.54,1.54,0,0,1,1.55,1.55V9.25A4.2,4.2,0,0,1,43,7.64a4,4,0,0,1,3.52,2,4.82,4.82,0,0,1,4-2,4.38,4.38,0,0,1,3.88,2.13,6.77,6.77,0,0,1,.71,3.42v7a1.55,1.55,0,0,1-1.55,1.55h0A1.54,1.54,0,0,1,52,20.16V14.09a6.08,6.08,0,0,0-.29-2.37,1.74,1.74,0,0,0-1.76-1.16,2.29,2.29,0,0,0-1.83,1,5.46,5.46,0,0,0-.6,3v5.6A1.54,1.54,0,0,1,46,21.71h0a1.55,1.55,0,0,1-1.55-1.55V14.21a6.85,6.85,0,0,0-.3-2.55,1.89,1.89,0,0,0-1.9-1.26,2.46,2.46,0,0,0-2,1.06,5.74,5.74,0,0,0-.65,3.25V20A1.55,1.55,0,0,1,38,21.5h0A1.56,1.56,0,0,1,36.49,20V9.34A1.55,1.55,0,0,1,38,7.79Z" transform="translate(0)"/><path style="fill: #3E86FB" d="M58.41,7.54h0A1.61,1.61,0,0,1,60,9.18v.06A4.26,4.26,0,0,1,63.43,7.6a4.06,4.06,0,0,1,3.57,2,4.86,4.86,0,0,1,4.09-2A4.42,4.42,0,0,1,75,9.76a6.73,6.73,0,0,1,.72,3.47v7a1.6,1.6,0,0,1-1.6,1.61H73.9a1.61,1.61,0,0,1-1.6-1.61v-6.1A6.41,6.41,0,0,0,72,11.72a1.75,1.75,0,0,0-1.77-1.16,2.31,2.31,0,0,0-1.83,1,5.46,5.46,0,0,0-.59,3v5.6a1.55,1.55,0,0,1-1.55,1.55h0a1.54,1.54,0,0,1-1.55-1.55V14.09a6.08,6.08,0,0,0-.29-2.37,1.75,1.75,0,0,0-1.76-1.16,2.28,2.28,0,0,0-1.83,1,5.33,5.33,0,0,0-.6,3v5.63a1.61,1.61,0,0,1-1.6,1.61h-.24a1.61,1.61,0,0,1-1.6-1.61v-11A1.61,1.61,0,0,1,58.41,7.54Z" transform="translate(0)"/><path style="fill: #3E86FB" d="M78.94,0A2,2,0,0,1,81,2.06a2.06,2.06,0,1,1-4.12,0A2,2,0,0,1,78.94,0Z" transform="translate(0)"/><rect style="fill: #3E86FB" x="77.47" y="7.79" width="3.1" height="13.71" rx="1.55" ry="1.55"/></svg>